<svg width="96" height="96" xmlns="http://www.w3.org/2000/svg" xmlns:xlink="http://www.w3.org/1999/xlink" xml:space="preserve" overflow="hidden"><g transform="translate(-588 -437)"><path d="M655.89 479.39C658.6 477.56 661.71 475.51 660.89 472.39 660.83 472.15 659.95 472.15 659.89 472.39 659.48 474.14 659.06 475.72 654.89 478.39 654.65 478.54 655.53 479.63 655.89 479.39Z" fill="#385723"/><path d="M643.9 497.94C644.14 497.74 646.29 496.94 646.5 496.52 646.865 495.797 647.376 495.157 648 494.64 648.167 494.545 648.358 494.5 648.55 494.51L648.89 494.84C649.21 495.044 649.517 495.268 649.81 495.51 649.91 495.64 649.73 495.76 649.73 495.76L649.73 495.76 649.31 495.85C649.343 495.958 649.37 496.069 649.39 496.18 649.39 496.4 648.47 496.85 648.47 496.85L648.89 497.35C648.89 497.35 649.97 497.51 649.56 498.19L648.56 499.28 648.06 500.37C648.06 500.37 648.06 501.13 647.81 501.29 647.56 501.45 647.47 501.21 647.06 501.38 646.103 501.495 645.132 501.364 644.24 501 644.145 500.731 644.114 500.443 644.15 500.16 644.15 500.16 643.95 500.16 643.69 499.78 643.38 499.181 643.463 498.454 643.9 497.94Z" fill="#385723"/><path d="M640.05 502.47C639.125 501.69 638.281 500.819 637.53 499.87L636.95 499.37 635.1 497.1 634.43 496.43C634.43 496.43 634.16 496.18 634.35 496.1 634.86 496.043 635.376 496.101 635.86 496.27 636.15 496.41 637.68 498.2 637.95 498.19 638.22 498.18 638.4 498.07 638.62 498.19 638.952 498.471 639.259 498.778 639.54 499.11 639.72 499.176 639.891 499.263 640.05 499.37 640.201 499.6 640.312 499.853 640.38 500.12 640.565 500.431 640.827 500.689 641.14 500.87 641.74 501.29 641.47 501.29 641.47 501.29L641.3 502.05C641.3 502.05 641.48 502.8 641.3 502.97 641.12 503.14 640.94 503.06 640.05 502.47Z" fill="#385723"/><path d="M635.7 446C614.713 446 597.7 463.013 597.7 484 597.7 504.987 614.713 522 635.7 522 656.687 522 673.7 504.987 673.7 484 673.7 463.013 656.687 446 635.7 446ZM653.93 455.32C653.79 455.44 653.78 455.69 653.78 456.21 653.78 457.21 651.78 456.21 649.78 456.21 647.78 456.21 644.78 457.21 643.78 457.21 642.78 457.21 641.78 458.21 640.78 458.21 639.78 458.21 640.62 456.76 639.78 456.21 634.62 452.8 628.78 458.21 627.78 457.21 626.78 456.21 622.78 458.21 621.05 458.33 619.32 458.45 617.78 458.21 618.78 457.21 619.78 456.21 618.78 456.21 617.78 455.21L617.72 455.16C628.81 448.223 642.902 448.285 653.93 455.32ZM657.75 458.15C672.023 470.284 673.757 491.691 661.623 505.964 661.487 506.124 661.349 506.283 661.21 506.44 661.04 506.53 661.03 506.44 661.01 506.31 660.99 506.18 661.01 505.89 661.17 505.89 661.33 505.89 661.53 505.79 661.55 505.68 661.57 505.57 661.61 504.68 661.64 504.63 661.67 504.58 661.49 504.26 661.47 504.21 661.319 503.781 661.205 503.339 661.13 502.89 661.13 502.72 661.13 502.58 661.13 502.59 660.894 502.814 660.695 503.074 660.54 503.36 660.37 503.81 660.3 504.28 660.15 504.84 660.061 505.568 659.635 506.212 659 506.58 658.41 506.85 657.31 504.49 657.31 504.42 657.311 504.354 657.34 504.293 657.39 504.25 657.57 504.147 657.743 504.033 657.91 503.91 658.079 503.797 658.234 503.662 658.37 503.51 658.37 503.34 658.24 503.09 658.15 503.16 658.052 503.231 657.931 503.263 657.81 503.25 657.706 503.209 657.618 503.135 657.56 503.04 657.239 502.89 656.904 502.773 656.56 502.69 656.41 502.69 656.31 502.59 656.2 502.69 656.09 502.79 655.94 503.32 655.94 503.32 655.94 503.32 655.33 504.02 655.33 504.02 655.33 504.02 653.33 505.6 652.87 505.53 652.41 505.46 652 506 652 506 651.71 506.06 651 506.92 650.9 507 650.8 507.08 647.65 509.17 646.99 509.5 646.68 509.65 646.08 509.58 645.99 509.68 645.412 510.35 644.995 511.144 644.77 512 644.77 512.3 644.14 512.44 644.08 512.86 643.98 513.53 644.5 514.25 644.5 514.57 644.522 514.779 644.522 514.991 644.5 515.2 644.5 515.2 644.18 515.38 644.16 515.45 644.127 515.502 644.127 515.568 644.16 515.62 644.382 515.724 644.613 515.808 644.85 515.87 645.1 515.87 645.2 515.38 645.17 514.82L645.75 514.58C646.225 514.294 646.797 514.218 647.33 514.37 648.99 514.65 649.22 514.78 649.68 514.62 650.008 514.541 650.343 514.494 650.68 514.48 633.824 522.755 613.451 515.798 605.177 498.942 603.381 495.285 602.258 491.335 601.86 487.28 604.12 487.98 608.44 487.65 612.48 484.2 613.79 483.08 612.37 482.47 611.33 481.67 610.29 480.87 616.43 482.07 617.47 482.67 618.51 483.27 618.02 484.34 618.1 484.67 618.74 486.633 619.512 488.551 620.41 490.41 621.85 493.41 622.32 494.31 622.88 493.99 623.633 493.24 623.963 492.164 623.76 491.12 623.6 489.85 623.6 488.65 624.29 489.03 624.98 489.41 627.58 487.22 628.82 486.26 630.06 485.3 630.13 485.55 630.69 484.51 631.25 483.47 631.01 484.67 632.25 486.09 633.49 487.51 633.88 487.62 633.68 488.02 633.48 488.42 633.24 489.69 634.27 490.09 634.479 490.183 634.724 490.126 634.87 489.95 634.72 491.61 635.07 494.21 637.62 497.18 638.71 498.45 640.17 499.25 640.62 498.91 641.07 498.57 637.05 492.91 637.69 491.28 638.33 489.65 638.96 491.84 640.29 492.63 641.62 493.42 641.29 493.83 643.03 492.63 644.77 491.43 643.27 489.76 641.91 488.41 640.55 487.06 641.67 486.57 642.72 485.75 643.77 484.93 643.35 486.75 644.06 486.81 644.77 486.87 645.58 485.06 647.33 484.66 649.08 484.26 649.56 482.27 650.26 480.89 650.96 479.51 649.4 478.69 648.26 477.25 647.12 475.81 650.53 474 651 475 651.47 476 651.23 477 652.26 477.73 653.29 478.46 653.69 476.44 653.26 475.73 652.83 475.02 652.26 475.73 652.26 473.73 652.26 471.73 655.26 469.73 656.26 469.73 657.26 469.73 656.26 466.73 655.26 465.52 654.26 464.31 652.26 464.73 651.75 464.97 651.24 465.21 652.31 463.73 652.87 462.26 653.43 460.79 655.31 461.73 655.31 461.73L656.31 460.73C656.31 460.73 656.78 462.35 657.25 462.42 657.72 462.49 657.81 461.23 657.81 460.23L657.81 458.48Z" fill="#385723"/><path d="M656.72 495.87 659.22 499.2C659.509 499.59 660.036 499.716 660.47 499.5L661.72 498.87 663.4 499.43C663.923 499.607 664.491 499.327 664.668 498.805 664.709 498.684 664.727 498.557 664.72 498.43L664.72 498.43C664.72 498.077 664.534 497.75 664.23 497.57L660 495C659.841 494.91 659.662 494.862 659.48 494.86 659.48 494.86 656.94 494.61 656.76 494.86 656.58 495.11 656.72 495.87 656.72 495.87Z" fill="#385723"/></g></svg>