<svg width="96" height="96" xmlns="http://www.w3.org/2000/svg" xmlns:xlink="http://www.w3.org/1999/xlink" xml:space="preserve" overflow="hidden"><g transform="translate(-798 -318)"><path d="M863 347 857 347 857 341 863 341 863 347ZM863 363 857 363 857 357 863 357 863 363ZM863 379 857 379 857 373 863 373 863 379ZM863 395 857 395 857 389 863 389 863 395ZM849 347 843 347 843 341 849 341 849 347ZM849 363 843 363 843 357 849 357 849 363ZM849 379 843 379 843 373 849 373 849 379ZM849 401 843 401 843 389 849 389 849 401ZM835 347 829 347 829 341 835 341 835 347ZM835 363 829 363 829 357 835 357 835 363ZM835 379 829 379 829 373 835 373 835 379ZM835 395 829 395 829 389 835 389 835 395ZM870 401 870 334 867 334 867 328 864 328 864 324 828 324 828 328 825 328 825 334 822 334 822 401 818 401 818 408 874 408 874 401 870 401Z" fill="#385723"/></g></svg>