<svg width="96" height="96" xmlns="http://www.w3.org/2000/svg" xmlns:xlink="http://www.w3.org/1999/xlink" xml:space="preserve" overflow="hidden"><g transform="translate(-511 -318)"><path d="M528 329 534 329 534 403 528 403Z" fill="#385723"/><path d="M585 329 538 329 538 403 585 403C587.2 403 589 401.2 589 399L589 333C589 330.8 587.2 329 585 329ZM555.1 357.1C555.1 352.9 558.5 349.5 562.7 349.5 566.9 349.5 570.3 352.9 570.3 357.1 570.3 361.3 566.9 364.7 562.7 364.7 558.5 364.7 555.1 361.4 555.1 357.1ZM578 382 547.4 382 547.4 374.4C547.4 373.2 548 372.1 548.9 371.3 551.2 369.7 553.7 368.4 556.4 367.7 558.5 367.1 560.6 366.8 562.7 366.7 564.8 366.7 567 367 569 367.7 571.7 368.4 574.2 369.6 576.5 371.3 577.4 372 578 373.2 578 374.4L578 382Z" fill="#385723"/></g></svg>